<svg viewBox="0 0 105 100" fill="none" xmlns="http://www.w3.org/2000/svg">
  <defs>
    <!-- Blue Gradient for D -->
    <linearGradient id="blueDGrad" x1="40" y1="16" x2="100" y2="84" gradientUnits="userSpaceOnUse">
      <stop offset="0%" stopColor="#006df0" />
      <stop offset="50%" stopColor="#0551bc" />
      <stop offset="100%" stopColor="#093c90" />
    </linearGradient>
    
    <!-- Teal Gradient for Cross -->
    <linearGradient id="tealCrossGrad" x1="13" y1="34" x2="63" y2="84" gradientUnits="userSpaceOnUse">
      <stop offset="0%" stopColor="#00f0ff" />
      <stop offset="50%" stopColor="#00ceff" />
      <stop offset="100%" stopColor="#0099ff" />
    </linearGradient>
  </defs>

  <!-- Small floating pixel squares on the top left -->
  <rect x="30" y="8" width="5" height="5" rx="1.2" fill="#00f0ff" />
  <rect x="15" y="20" width="7" height="7" rx="1.5" fill="#00b8ff" />
  <rect x="33" y="22" width="6.5" height="6.5" rx="1.5" fill="#0a4392" />
  <rect x="23" y="33" width="7.5" height="7.5" rx="1.5" fill="#00f0ff" />
  <rect x="36" y="44" width="5" height="5" rx="1.2" fill="#00ceff" />

  <!-- Big 'D' letter shape -->
  <path 
    d="M 40,16 
       H 70 
       C 88,16 99,30 99,50 
       C 99,70 88,84 70,84 
       H 48
       C 44,84 41.5,81.5 41.5,77.5
       V 70.5
       H 48
       C 65,70.5 74,65 74,50 
       C 74,35 65,29.5 48,29.5 
       H 40 
       Z" 
    fill="url(#blueDGrad)" 
  />

  <!-- Medical Cross '+' overlapping -->
  <path 
    d="M 32,34
       h 12
       a 4,4 0 0 1 4,4
       v 11
       h 11
       a 4,4 0 0 1 4,4
       v 12
       a 4,4 0 0 1 -4,4
       H 48
       v 11
       a 4,4 0 0 1 -4,4
       H 32
       a 4,4 0 0 1 -4,-4
       V 69
       H 17
       a 4,4 0 0 1 -4,-4
       V 53
       a 4,4 0 0 1 4,-4
       h 11
       V 38
       a 4,4 0 0 1 4,-4
       z"
    fill="url(#tealCrossGrad)"
  />
</svg>
